<svg width="18" height="18" viewBox="0 0 18 18" fill="none" xmlns="http://www.w3.org/2000/svg">
<path d="M14.9363 10.6311C14.6453 10.2111 14.7285 10.0243 14.9363 9.64886C14.94 9.64457 17.3422 5.85086 17.5897 4.56429L17.5912 4.56343C17.7143 4.09457 17.5913 3.75 16.9965 3.75H15.0285C14.5275 3.75 14.2965 4.04571 14.1727 4.37657C14.1727 4.37657 13.1707 7.11771 11.7533 8.89457C11.2957 9.408 11.0843 9.57257 10.8345 9.57257C10.7115 9.57257 10.5203 9.408 10.5203 8.93914V4.56343C10.5203 4.00114 10.38 3.75 9.96525 3.75H6.87075C6.5565 3.75 6.36975 4.01229 6.36975 4.25657C6.36975 4.78971 7.0785 4.91229 7.152 6.41229V9.66686C7.152 10.38 7.03875 10.5111 6.7875 10.5111C6.1185 10.5111 4.49475 7.75886 3.5325 4.60886C3.33825 3.99771 3.1485 3.75086 2.64375 3.75086H0.675C0.11325 3.75086 0 4.04657 0 4.37743C0 4.962 0.669 7.86857 3.111 11.7086C4.7385 14.3297 7.0305 15.75 9.1155 15.75C10.3688 15.75 10.5218 15.4346 10.5218 14.892C10.5218 12.3874 10.4085 12.1509 11.0363 12.1509C11.3273 12.1509 11.8282 12.3154 12.9982 13.5797C14.3355 15.0789 14.5553 15.75 15.3038 15.75H17.2717C17.8328 15.75 18.117 15.4346 17.9535 14.8123C17.5793 13.5034 15.0503 10.8111 14.9363 10.6311Z" fill="#293539"/>
</svg>
