<svg width="25" height="16" viewBox="0 0 25 16" fill="none" xmlns="http://www.w3.org/2000/svg">
<path d="M20.3536 8.35355C20.5488 8.15829 20.5488 7.84171 20.3536 7.64644L17.1716 4.46446C16.9763 4.2692 16.6597 4.2692 16.4645 4.46446C16.2692 4.65973 16.2692 4.97631 16.4645 5.17157L19.2929 8L16.4645 10.8284C16.2692 11.0237 16.2692 11.3403 16.4645 11.5355C16.6597 11.7308 16.9763 11.7308 17.1716 11.5355L20.3536 8.35355ZM5.68249e-08 8.5L20 8.5L20 7.5L-5.68249e-08 7.5L5.68249e-08 8.5Z" fill="#F4D37D"/>
<line x1="24.5" y1="-2.18557e-08" x2="24.5" y2="16" stroke="#F4D37D"/>
</svg>
