<svg width="42" height="42" viewBox="0 0 42 42" fill="none" xmlns="http://www.w3.org/2000/svg">
<path d="M7 0V8.75H0V24.5H7V42H31.5L42 31.5V0H7ZM1.75 22.75V10.5H28V22.75H1.75ZM31.5 39.5255V31.5H39.5255L31.5 39.5255ZM40.25 29.75H29.75V40.25H8.75V24.5H29.75V8.75H8.75V1.75H40.25V29.75Z" fill="#FBF8ED"/>
<path d="M9.93909 14.3097C9.86909 14.0402 9.75359 13.8005 9.59259 13.5905C9.43159 13.3805 9.22159 13.2107 8.95734 13.0812C8.69309 12.9517 8.37109 12.887 7.98609 12.887H5.34009V20.384H6.85209V17.3915H7.66059C8.01759 17.3915 8.34309 17.3425 8.63709 17.2532C8.93109 17.164 9.18134 17.0257 9.38784 16.8437C9.59434 16.6635 9.75534 16.429 9.87084 16.142C9.98634 15.855 10.0441 15.519 10.0441 15.134C10.0441 14.854 10.0073 14.5775 9.93909 14.3097ZM8.25384 16.0072C8.07009 16.1892 7.82509 16.282 7.52409 16.282H6.85209V14.0017H7.48209C7.86009 14.0017 8.12959 14.1015 8.29059 14.2957C8.45159 14.4917 8.53209 14.7787 8.53209 15.1567C8.53209 15.5417 8.43934 15.8252 8.25384 16.0072Z" fill="#FBF8ED"/>
<path d="M16.7734 15.0305C16.7104 14.5807 16.5914 14.1992 16.4112 13.8807C16.2327 13.5605 15.9824 13.3172 15.6604 13.1457C15.3367 12.9742 14.9149 12.8867 14.3882 12.8867H11.9102V20.3837H14.2972C14.8012 20.3837 15.2177 20.3067 15.5467 20.1527C15.8757 19.9987 16.1382 19.766 16.3342 19.4492C16.5302 19.1342 16.6684 18.7317 16.7489 18.247C16.8294 17.7605 16.8679 17.1882 16.8679 16.5302C16.8679 15.979 16.8364 15.4785 16.7734 15.0305ZM15.3069 17.855C15.2772 18.1997 15.2142 18.4762 15.1179 18.6862C15.0234 18.8962 14.8957 19.0467 14.7347 19.1377C14.5737 19.2287 14.3602 19.2742 14.0942 19.2742H13.4222V14.0015H14.0609C14.3479 14.0015 14.5772 14.0575 14.7487 14.166C14.9219 14.2727 15.0497 14.4337 15.1389 14.6472C15.2264 14.8607 15.2842 15.1285 15.3122 15.4505C15.3384 15.7742 15.3542 16.1487 15.3542 16.5757C15.3542 17.0867 15.3384 17.5137 15.3069 17.855Z" fill="#FBF8ED"/>
<path d="M23.0997 14.1296V12.8906H18.9102V20.3876H20.4222V17.1326H22.9422V15.8936H20.4222V14.1296H23.0997Z" fill="#FBF8ED"/>
</svg>
