<svg width="16" height="16" viewBox="0 0 16 16" fill="none" xmlns="http://www.w3.org/2000/svg">
<path d="M13.325 2.65562C11.9 1.27812 10.025 0.5 8.02812 0.5C2.29688 0.5 -1.30187 6.70937 1.56 11.6487L0.5 15.5L4.45937 14.4675C6.18437 15.3994 7.5975 15.3169 8.03187 15.3719C14.6775 15.3719 17.9856 7.33187 13.3156 2.68L13.325 2.65562Z" fill="#293539"/>
<path d="M8.04217 14.0927L8.03842 14.0921H8.02842C6.03967 14.0921 4.76904 13.1502 4.64404 13.0958L2.30029 13.7052L2.92842 11.4271L2.77904 11.1927C2.16029 10.2077 1.83154 9.0733 1.83154 7.90518C1.83154 2.40955 8.54717 -0.338574 12.4334 3.5458C16.3103 7.38955 13.5884 14.0927 8.04217 14.0927Z" fill="#293539"/>
<path d="M11.442 9.44137L11.4363 9.48825C11.2482 9.3945 10.332 8.94637 10.1613 8.8845C9.77821 8.74262 9.88634 8.862 9.15071 9.7045C9.04134 9.82637 8.93259 9.83575 8.74696 9.75137C8.55946 9.65762 7.95759 9.46075 7.24509 8.82325C6.69009 8.32637 6.31759 7.717 6.20759 7.5295C6.02446 7.21325 6.40759 7.16825 6.75634 6.50825C6.81884 6.377 6.78696 6.27387 6.74071 6.18075C6.69384 6.087 6.32071 5.16825 6.16446 4.802C6.01446 4.437 5.86009 4.48325 5.74446 4.48325C5.38446 4.452 5.12134 4.457 4.88946 4.69825C3.88071 5.807 4.13509 6.95075 4.99821 8.167C6.69446 10.387 7.59821 10.7957 9.25071 11.3632C9.69696 11.5051 10.1038 11.4851 10.4257 11.4389C10.7845 11.382 11.5301 10.9882 11.6857 10.5476C11.8451 10.107 11.8451 9.74137 11.7982 9.657C11.752 9.57262 11.6295 9.52575 11.442 9.44137Z" fill="#161F22"/>
</svg>
