<svg width="20" height="15" viewBox="0 0 20 15" fill="none" xmlns="http://www.w3.org/2000/svg">
<path d="M18.9831 2.73047C18.7666 1.87815 18.132 1.20627 17.3273 0.976762C15.8573 0.550781 9.97684 0.550781 9.97684 0.550781C9.97684 0.550781 4.09664 0.550781 2.62657 0.960612C1.83735 1.18987 1.18733 1.87827 0.970853 2.73047C0.583984 4.28722 0.583984 7.51572 0.583984 7.51572C0.583984 7.51572 0.583984 10.7605 0.970853 12.301C1.18756 13.1532 1.82187 13.825 2.62668 14.0545C4.11212 14.4807 9.97707 14.4807 9.97707 14.4807C9.97707 14.4807 15.8573 14.4807 17.3273 14.0708C18.1322 13.8414 18.7666 13.1696 18.9833 12.3174C19.37 10.7605 19.37 7.53211 19.37 7.53211C19.37 7.53211 19.3855 4.28722 18.9831 2.73047ZM8.10464 10.4983V4.53312L12.9945 7.51572L8.10464 10.4983Z" fill="#445960"/>
</svg>
