<svg width="16" height="16" viewBox="0 0 16 16" fill="none" xmlns="http://www.w3.org/2000/svg">
<path d="M13.4749 6.79456C13.4934 4.67975 11.6437 2.74103 9.35165 2.47294C9.30606 2.46768 9.2564 2.45967 9.20383 2.45119C9.09036 2.43288 8.97301 2.41406 8.85462 2.41406C8.38485 2.41406 8.25928 2.7354 8.22622 2.92704C8.19408 3.11338 8.22474 3.26985 8.31721 3.39232C8.47278 3.59831 8.7465 3.63488 8.96636 3.66418C9.0308 3.67285 9.0916 3.68091 9.1425 3.69204C11.2018 4.14013 11.8952 4.84461 12.2341 6.8329C12.2424 6.88149 12.2461 6.94135 12.2501 7.00484C12.2649 7.24251 12.2957 7.737 12.8416 7.737H12.8416C12.8871 7.737 12.9359 7.73318 12.9868 7.72563C13.4951 7.6504 13.4792 7.1984 13.4716 6.98122C13.4694 6.92006 13.4673 6.8622 13.4726 6.82372C13.4741 6.81403 13.4748 6.8043 13.4749 6.79456Z" fill="#293539"/>
<path d="M8.7217 1.69664C8.78269 1.70093 8.84043 1.70503 8.8885 1.7122C12.2701 2.21861 13.8252 3.77879 14.2562 7.09751C14.2635 7.15392 14.2647 7.22273 14.2658 7.29558C14.2702 7.55487 14.279 8.09426 14.8739 8.10544L14.8923 8.10563C15.0789 8.10563 15.2273 8.05085 15.3334 7.94268C15.5186 7.75406 15.5057 7.47386 15.4953 7.24867C15.4927 7.19343 15.4903 7.14139 15.4909 7.09583C15.5339 3.70165 12.5168 0.62382 9.03441 0.509363C9.01996 0.508897 9.00618 0.509643 8.99226 0.511553C8.98542 0.512531 8.97275 0.513742 8.95103 0.513742C8.9163 0.513742 8.87358 0.510807 8.82828 0.507826C8.7735 0.504193 8.71141 0.5 8.64846 0.5C8.09388 0.5 7.98844 0.88385 7.97495 1.11267C7.94386 1.64149 8.46921 1.67871 8.7217 1.69664Z" fill="#293539"/>
<path d="M14.0925 11.3866C14.0206 11.3331 13.9463 11.2777 13.8767 11.2232C13.5075 10.9338 13.1147 10.6671 12.7348 10.4092C12.656 10.3557 12.5771 10.3022 12.4986 10.2485C12.012 9.91569 11.5745 9.75395 11.1612 9.75395C10.6045 9.75395 10.1192 10.0535 9.71858 10.6441C9.5411 10.906 9.32579 11.0333 9.06044 11.0333C8.90353 11.0333 8.72524 10.9897 8.53059 10.9036C6.95995 10.21 5.83841 9.14664 5.19705 7.74293C4.88702 7.06449 4.98752 6.62101 5.53316 6.26008C5.843 6.0553 6.41972 5.67406 6.37887 4.944C6.33261 4.11495 4.45414 1.62043 3.66267 1.33711C3.32757 1.21711 2.97549 1.21599 2.61432 1.33432C1.70445 1.63217 1.05152 2.15526 0.725942 2.84694C0.411316 3.51527 0.425524 4.30002 0.767034 5.11636C1.7543 7.47656 3.14235 9.53435 4.89276 11.2325C6.6061 12.8948 8.71194 14.2564 11.1517 15.2794C11.3716 15.3716 11.6023 15.4218 11.7708 15.4585C11.8282 15.4711 11.8777 15.4818 11.9138 15.4914C11.9337 15.4967 11.9542 15.4995 11.9747 15.4997L11.994 15.4998C11.994 15.4998 11.994 15.4998 11.9941 15.4998C13.1416 15.4998 14.5194 14.4787 14.9426 13.3146C15.3133 12.2952 14.6364 11.7914 14.0925 11.3866Z" fill="#293539"/>
<path d="M9.22736 4.39103C9.0309 4.39588 8.62203 4.40575 8.47856 4.81126C8.41145 5.00077 8.41949 5.1653 8.50248 5.3003C8.62428 5.49838 8.85763 5.55907 9.06988 5.59238C9.83964 5.71266 10.235 6.12716 10.314 6.89673C10.3508 7.25556 10.5989 7.50614 10.9175 7.50614H10.9176C10.9411 7.50614 10.9652 7.50479 10.9891 7.50194C11.3723 7.45755 11.5581 7.1834 11.5413 6.68719C11.5474 6.16932 11.2691 5.58139 10.7957 5.11308C10.3207 4.64333 9.74817 4.37878 9.22736 4.39103Z" fill="#293539"/>
</svg>
