<svg width="16" height="16" viewBox="0 0 16 16" fill="none" xmlns="http://www.w3.org/2000/svg">
<path fill-rule="evenodd" clip-rule="evenodd" d="M0.531946 6.29975C0.502909 3.64576 0.491103 2.56676 1.47825 1.5414C2.51426 0.467204 3.64562 0.476651 7.60742 0.509732C8.42778 0.516583 9.3695 0.524446 10.4569 0.523912C12.2109 0.52697 12.3105 0.541433 12.6429 0.58969L12.662 0.592451C14.1816 0.811153 15.335 1.89095 15.482 3.76456C15.502 4.01504 15.502 11.9849 15.4826 12.2304C15.3443 13.9893 14.3324 14.9981 13.0888 15.319C12.1573 15.5601 3.8927 15.5601 2.95994 15.3202C0.391931 14.6565 0.453514 12.1397 0.521332 9.36802C0.532398 8.91575 0.54363 8.45668 0.54363 7.99778C0.54363 7.36765 0.537476 6.80514 0.531946 6.29975ZM7.47392 2.47536C7.65468 2.47667 7.83683 2.47798 8.01972 2.47798H8.01722C8.23477 2.47798 8.44513 2.47656 8.64866 2.47519C10.4125 2.46328 11.6622 2.45485 12.6118 3.40451C13.5578 4.34992 13.5511 5.57911 13.5411 7.40072C13.5401 7.59363 13.539 7.79318 13.539 7.99974C13.539 8.19078 13.5397 8.37474 13.5403 8.55207C13.5453 9.88315 13.5489 10.8408 13.2492 11.6161C12.4914 13.5604 10.5654 13.5429 8.58819 13.5249C8.39843 13.5232 8.20819 13.5215 8.01847 13.5215C7.83674 13.5215 7.65554 13.5228 7.47553 13.5241C5.43116 13.539 3.54079 13.5528 2.78832 11.6161C2.48923 10.8461 2.49321 9.70116 2.49754 8.45514C2.49806 8.30465 2.49859 8.15269 2.49859 7.99974C2.49859 7.81145 2.49792 7.62977 2.49728 7.45434C2.49239 6.12274 2.48882 5.15132 2.78832 4.38275C3.54258 2.44698 5.41864 2.46052 7.47392 2.47536ZM8.41278 3.46714C8.13444 3.46977 7.83882 3.47255 7.52499 3.47305V3.4718C3.84382 3.47554 3.4949 3.54532 3.4949 7.99725C3.4949 12.3981 3.62138 12.5239 8.02034 12.5239C8.24232 12.5239 8.46049 12.5263 8.67377 12.5287C10.7785 12.5518 12.4065 12.5696 12.5134 10.2291C12.8228 3.42561 12.32 3.43034 8.41278 3.46714ZM10.3046 5.05194C10.3046 4.68619 10.6011 4.3896 10.9669 4.3896C11.3326 4.3896 11.6292 4.68619 11.6292 5.05194C11.6292 5.41769 11.3326 5.71427 10.9669 5.71427C10.6011 5.71427 10.3046 5.41769 10.3046 5.05194ZM5.18469 7.99974C5.18469 6.43393 6.45391 5.16409 8.01972 5.16409C9.58552 5.16409 10.8541 6.43393 10.8541 7.99974C10.8541 9.56554 9.58552 10.8348 8.01972 10.8348C6.45391 10.8348 5.18469 9.56554 5.18469 7.99974ZM8.01972 6.15915C10.4529 6.15915 10.456 9.84032 8.01972 9.84032C5.5872 9.84032 5.58347 6.15915 8.01972 6.15915Z" fill="#293539"/>
</svg>
