<svg width="19" height="14" viewBox="0 0 19 14" xmlns="http://www.w3.org/2000/svg">
<g clip-path="url(#clip0)">
<path d="M15.5891 7.86535C15.2854 7.40489 15.3723 7.20003 15.5891 6.78844C15.593 6.78374 18.1003 2.62454 18.3586 1.21402L18.3602 1.21308C18.4885 0.699056 18.3602 0.321289 17.7394 0.321289H15.6854C15.1625 0.321289 14.9214 0.645492 14.7922 1.00822C14.7922 1.00822 13.7464 4.01345 12.267 5.96148C11.7895 6.52437 11.5687 6.7048 11.3081 6.7048C11.1797 6.7048 10.9801 6.52437 10.9801 6.01035V1.21308C10.9801 0.596627 10.8337 0.321289 10.4008 0.321289H7.17107C6.84308 0.321289 6.64817 0.608843 6.64817 0.876663C6.64817 1.46117 7.3879 1.59555 7.46461 3.24006V6.80817C7.46461 7.59002 7.34641 7.73379 7.08418 7.73379C6.38594 7.73379 4.69121 4.71635 3.6869 1.26289C3.48416 0.592868 3.28612 0.322229 2.75931 0.322229H0.704504C0.1182 0.322229 0 0.646432 0 1.00916C0 1.65005 0.698242 4.83664 3.24698 9.04658C4.94562 11.9202 7.3378 13.4774 9.51394 13.4774C10.822 13.4774 10.9817 13.1315 10.9817 12.5367C10.9817 9.79084 10.8635 9.53148 11.5186 9.53148C11.8224 9.53148 12.3453 9.7119 13.5664 11.098C14.9621 12.7416 15.1915 13.4774 15.9727 13.4774H18.0267C18.6122 13.4774 18.9089 13.1315 18.7382 12.4493C18.3476 11.0144 15.7081 8.06269 15.5891 7.86535Z" />
</g>
<defs>
<clipPath id="clip0">
<rect width="18.7861" height="13.1561" fill="white" transform="translate(0 0.321289)"/>
</clipPath>
</defs>
</svg>
