<svg width="16" height="17" viewBox="0 0 16 17" xmlns="http://www.w3.org/2000/svg">
<g clip-path="url(#clip0)">
<path d="M9.62031 8.51807C9.62031 9.26933 9.02889 9.87842 8.29941 9.87842C7.56994 9.87842 6.97852 9.26933 6.97852 8.51807C6.97852 7.7668 7.56994 7.15771 8.29941 7.15771C9.02889 7.15771 9.62031 7.7668 9.62031 8.51807Z" fill="#445960"/>
<path d="M10.5295 4.40601H6.06784C5.09666 4.40601 4.30664 5.21962 4.30664 6.21981V10.8148C4.30664 11.815 5.09666 12.6286 6.06784 12.6286H10.5295C11.5007 12.6286 12.2907 11.815 12.2907 10.8148V6.21981C12.2907 5.21962 11.5007 4.40601 10.5295 4.40601ZM8.29869 10.7845C7.08477 10.7845 6.09719 9.76747 6.09719 8.51729C6.09719 7.26711 7.08477 6.25004 8.29869 6.25004C9.51261 6.25004 10.5002 7.26711 10.5002 8.51729C10.5002 9.76747 9.51261 10.7845 8.29869 10.7845ZM10.8231 6.37096C10.5799 6.37096 10.3828 6.16797 10.3828 5.91751C10.3828 5.66705 10.5799 5.46406 10.8231 5.46406C11.0663 5.46406 11.2634 5.66705 11.2634 5.91751C11.2634 6.16797 11.0663 6.37096 10.8231 6.37096Z" />
<path d="M11.8514 0.777344H4.74785C2.56287 0.777344 0.785156 2.60815 0.785156 4.8584V12.1741C0.785156 14.4243 2.56287 16.2551 4.74785 16.2551H11.8514C14.0363 16.2551 15.8141 14.4243 15.8141 12.1741V4.8584C15.8141 2.60815 14.0363 0.777344 11.8514 0.777344ZM13.1723 10.8137C13.1723 12.3139 11.9871 13.5344 10.5305 13.5344H6.06875C4.6121 13.5344 3.42696 12.3139 3.42696 10.8137V6.21875C3.42696 4.71859 4.6121 3.49805 6.06875 3.49805H10.5305C11.9871 3.49805 13.1723 4.71859 13.1723 6.21875V10.8137Z" />
</g>
<defs>
<clipPath id="clip0">
<rect width="15.0289" height="15.4778" fill="white" transform="translate(0.785156 0.777344)"/>
</clipPath>
</defs>
</svg>
