<svg xmlns="http://www.w3.org/2000/svg" xmlns:xlink="http://www.w3.org/1999/xlink"><defs>
<clipPath id="clip0">
<rect width="9.76878" height="17.0256" fill="white" transform="translate(0.814453)"/>
</clipPath>

<clipPath id="clip0">
<rect width="15.0289" height="15.4778" fill="white" transform="translate(0.785156 0.777344)"/>
</clipPath>

<clipPath id="clip0">
<rect width="18.7861" height="13.1561" fill="white" transform="translate(0 0.321289)"/>
</clipPath>
</defs><symbol id="icon-arrowpagination" viewBox="0 0 49 8">
<path d="M47.877 4.35355C48.0723 4.15829 48.0723 3.8417 47.877 3.64644L44.695 0.464462C44.4997 0.2692 44.1832 0.2692 43.9879 0.464462C43.7926 0.659725 43.7926 0.976307 43.9879 1.17157L46.8163 4L43.9879 6.82842C43.7926 7.02369 43.7926 7.34027 43.9879 7.53553C44.1832 7.73079 44.4997 7.73079 44.695 7.53553L47.877 4.35355ZM0.523438 4.5L47.5234 4.5L47.5234 3.5L0.523437 3.5L0.523438 4.5Z"/>
</symbol><symbol id="icon-arrowsmall" viewBox="0 0 11 8">
<path d="M10.3536 4.35355C10.5488 4.15829 10.5488 3.84171 10.3536 3.64645L7.17157 0.464467C6.97631 0.269205 6.65973 0.269204 6.46447 0.464467C6.2692 0.659729 6.2692 0.976311 6.46447 1.17157L9.29289 4L6.46447 6.82843C6.2692 7.02369 6.2692 7.34027 6.46447 7.53553C6.65973 7.7308 6.97631 7.7308 7.17157 7.53553L10.3536 4.35355ZM-4.37114e-08 4.5L10 4.5L10 3.5L4.37114e-08 3.5L-4.37114e-08 4.5Z" fill="#A7CCBE"/>
</symbol><symbol id="icon-arrowtop" viewBox="0 0 8 48">
<path d="M4.35355 0.646446C4.15829 0.451183 3.84171 0.451183 3.64644 0.646446L0.464464 3.82843C0.269202 4.02369 0.269202 4.34027 0.464464 4.53553C0.659726 4.7308 0.976309 4.7308 1.17157 4.53553L4 1.70711L6.82843 4.53553C7.02369 4.7308 7.34027 4.7308 7.53553 4.53553C7.73079 4.34027 7.73079 4.02369 7.53553 3.82843L4.35355 0.646446ZM4.5 48L4.5 1L3.5 1L3.5 48L4.5 48Z" fill="#FBF8ED"/>
</symbol><symbol id="icon-cross" viewBox="0 0 26 26">
<rect x="23.6055" y="0.978516" width="2" height="32" transform="rotate(45 23.6055 0.978516)" fill="#FBF8ED"/>
<rect x="25.0195" y="23.6074" width="2" height="32" transform="rotate(135 25.0195 23.6074)" fill="#FBF8ED"/>
</symbol><symbol id="icon-facebook-small" viewBox="0 0 10 18">
<path d="M7.8575 2.98875H9.50075V0.12675C9.21725 0.08775 8.24225 0 7.10675 0C4.7375 0 3.1145 1.49025 3.1145 4.22925V6.75H0.5V9.9495H3.1145V18H6.32V9.95025H8.82875L9.227 6.75075H6.31925V4.5465C6.32 3.62175 6.569 2.98875 7.8575 2.98875Z" fill="#293539"/>
</symbol><symbol id="icon-facebook" viewBox="0 0 11 18">
<g clip-path="url(#clip0)">
<path d="M8.77083 3.35867H10.4554V0.380901C10.1647 0.340323 9.16524 0.249023 8.00122 0.249023C5.57246 0.249023 3.90869 1.79956 3.90869 4.64935V7.27207H1.22852V10.601H3.90869V18.9772H7.19471V10.6018H9.76647L10.1747 7.27285H7.19394V4.97944C7.19471 4.01728 7.44996 3.35867 8.77083 3.35867Z"/>
</g>

</symbol><symbol id="icon-instagram-small" viewBox="0 0 16 16">
<path fill-rule="evenodd" clip-rule="evenodd" d="M0.531946 6.29975C0.502909 3.64576 0.491103 2.56676 1.47825 1.5414C2.51426 0.467204 3.64562 0.476651 7.60742 0.509732C8.42778 0.516583 9.3695 0.524446 10.4569 0.523912C12.2109 0.52697 12.3105 0.541433 12.6429 0.58969L12.662 0.592451C14.1816 0.811153 15.335 1.89095 15.482 3.76456C15.502 4.01504 15.502 11.9849 15.4826 12.2304C15.3443 13.9893 14.3324 14.9981 13.0888 15.319C12.1573 15.5601 3.8927 15.5601 2.95994 15.3202C0.391931 14.6565 0.453514 12.1397 0.521332 9.36802C0.532398 8.91575 0.54363 8.45668 0.54363 7.99778C0.54363 7.36765 0.537476 6.80514 0.531946 6.29975ZM7.47392 2.47536C7.65468 2.47667 7.83683 2.47798 8.01972 2.47798H8.01722C8.23477 2.47798 8.44513 2.47656 8.64866 2.47519C10.4125 2.46328 11.6622 2.45485 12.6118 3.40451C13.5578 4.34992 13.5511 5.57911 13.5411 7.40072C13.5401 7.59363 13.539 7.79318 13.539 7.99974C13.539 8.19078 13.5397 8.37474 13.5403 8.55207C13.5453 9.88315 13.5489 10.8408 13.2492 11.6161C12.4914 13.5604 10.5654 13.5429 8.58819 13.5249C8.39843 13.5232 8.20819 13.5215 8.01847 13.5215C7.83674 13.5215 7.65554 13.5228 7.47553 13.5241C5.43116 13.539 3.54079 13.5528 2.78832 11.6161C2.48923 10.8461 2.49321 9.70116 2.49754 8.45514C2.49806 8.30465 2.49859 8.15269 2.49859 7.99974C2.49859 7.81145 2.49792 7.62977 2.49728 7.45434C2.49239 6.12274 2.48882 5.15132 2.78832 4.38275C3.54258 2.44698 5.41864 2.46052 7.47392 2.47536ZM8.41278 3.46714C8.13444 3.46977 7.83882 3.47255 7.52499 3.47305V3.4718C3.84382 3.47554 3.4949 3.54532 3.4949 7.99725C3.4949 12.3981 3.62138 12.5239 8.02034 12.5239C8.24232 12.5239 8.46049 12.5263 8.67377 12.5287C10.7785 12.5518 12.4065 12.5696 12.5134 10.2291C12.8228 3.42561 12.32 3.43034 8.41278 3.46714ZM10.3046 5.05194C10.3046 4.68619 10.6011 4.3896 10.9669 4.3896C11.3326 4.3896 11.6292 4.68619 11.6292 5.05194C11.6292 5.41769 11.3326 5.71427 10.9669 5.71427C10.6011 5.71427 10.3046 5.41769 10.3046 5.05194ZM5.18469 7.99974C5.18469 6.43393 6.45391 5.16409 8.01972 5.16409C9.58552 5.16409 10.8541 6.43393 10.8541 7.99974C10.8541 9.56554 9.58552 10.8348 8.01972 10.8348C6.45391 10.8348 5.18469 9.56554 5.18469 7.99974ZM8.01972 6.15915C10.4529 6.15915 10.456 9.84032 8.01972 9.84032C5.5872 9.84032 5.58347 6.15915 8.01972 6.15915Z"/>
</symbol><symbol id="icon-instagram" viewBox="0 0 16 17">
<g clip-path="url(#clip0)">
<path d="M9.62031 8.51807C9.62031 9.26933 9.02889 9.87842 8.29941 9.87842C7.56994 9.87842 6.97852 9.26933 6.97852 8.51807C6.97852 7.7668 7.56994 7.15771 8.29941 7.15771C9.02889 7.15771 9.62031 7.7668 9.62031 8.51807Z" fill="#445960"/>
<path d="M10.5295 4.40601H6.06784C5.09666 4.40601 4.30664 5.21962 4.30664 6.21981V10.8148C4.30664 11.815 5.09666 12.6286 6.06784 12.6286H10.5295C11.5007 12.6286 12.2907 11.815 12.2907 10.8148V6.21981C12.2907 5.21962 11.5007 4.40601 10.5295 4.40601ZM8.29869 10.7845C7.08477 10.7845 6.09719 9.76747 6.09719 8.51729C6.09719 7.26711 7.08477 6.25004 8.29869 6.25004C9.51261 6.25004 10.5002 7.26711 10.5002 8.51729C10.5002 9.76747 9.51261 10.7845 8.29869 10.7845ZM10.8231 6.37096C10.5799 6.37096 10.3828 6.16797 10.3828 5.91751C10.3828 5.66705 10.5799 5.46406 10.8231 5.46406C11.0663 5.46406 11.2634 5.66705 11.2634 5.91751C11.2634 6.16797 11.0663 6.37096 10.8231 6.37096Z"/>
<path d="M11.8514 0.777344H4.74785C2.56287 0.777344 0.785156 2.60815 0.785156 4.8584V12.1741C0.785156 14.4243 2.56287 16.2551 4.74785 16.2551H11.8514C14.0363 16.2551 15.8141 14.4243 15.8141 12.1741V4.8584C15.8141 2.60815 14.0363 0.777344 11.8514 0.777344ZM13.1723 10.8137C13.1723 12.3139 11.9871 13.5344 10.5305 13.5344H6.06875C4.6121 13.5344 3.42696 12.3139 3.42696 10.8137V6.21875C3.42696 4.71859 4.6121 3.49805 6.06875 3.49805H10.5305C11.9871 3.49805 13.1723 4.71859 13.1723 6.21875V10.8137Z"/>
</g>

</symbol><symbol id="icon-linkarrow" viewBox="0 0 27 16">
<path d="M25.7578 8.70711C26.1484 8.31658 26.1484 7.68342 25.7578 7.29289L19.3939 0.928932C19.0033 0.538408 18.3702 0.538408 17.9797 0.928932C17.5891 1.31946 17.5891 1.95262 17.9797 2.34315L23.6365 8L17.9797 13.6569C17.5891 14.0474 17.5891 14.6805 17.9797 15.0711C18.3702 15.4616 19.0033 15.4616 19.3939 15.0711L25.7578 8.70711ZM0.496094 9H25.0507V7H0.496094V9Z" fill="#3F7E67"/>
</symbol><symbol id="icon-pdf" viewBox="0 0 42 42">
<path d="M7 0V8.75H0V24.5H7V42H31.5L42 31.5V0H7ZM1.75 22.75V10.5H28V22.75H1.75ZM31.5 39.5255V31.5H39.5255L31.5 39.5255ZM40.25 29.75H29.75V40.25H8.75V24.5H29.75V8.75H8.75V1.75H40.25V29.75Z" fill="#FBF8ED"/>
<path d="M9.93909 14.3097C9.86909 14.0402 9.75359 13.8005 9.59259 13.5905C9.43159 13.3805 9.22159 13.2107 8.95734 13.0812C8.69309 12.9517 8.37109 12.887 7.98609 12.887H5.34009V20.384H6.85209V17.3915H7.66059C8.01759 17.3915 8.34309 17.3425 8.63709 17.2532C8.93109 17.164 9.18134 17.0257 9.38784 16.8437C9.59434 16.6635 9.75534 16.429 9.87084 16.142C9.98634 15.855 10.0441 15.519 10.0441 15.134C10.0441 14.854 10.0073 14.5775 9.93909 14.3097ZM8.25384 16.0072C8.07009 16.1892 7.82509 16.282 7.52409 16.282H6.85209V14.0017H7.48209C7.86009 14.0017 8.12959 14.1015 8.29059 14.2957C8.45159 14.4917 8.53209 14.7787 8.53209 15.1567C8.53209 15.5417 8.43934 15.8252 8.25384 16.0072Z" fill="#FBF8ED"/>
<path d="M16.7734 15.0305C16.7104 14.5807 16.5914 14.1992 16.4112 13.8807C16.2327 13.5605 15.9824 13.3172 15.6604 13.1457C15.3367 12.9742 14.9149 12.8867 14.3882 12.8867H11.9102V20.3837H14.2972C14.8012 20.3837 15.2177 20.3067 15.5467 20.1527C15.8757 19.9987 16.1382 19.766 16.3342 19.4492C16.5302 19.1342 16.6684 18.7317 16.7489 18.247C16.8294 17.7605 16.8679 17.1882 16.8679 16.5302C16.8679 15.979 16.8364 15.4785 16.7734 15.0305ZM15.3069 17.855C15.2772 18.1997 15.2142 18.4762 15.1179 18.6862C15.0234 18.8962 14.8957 19.0467 14.7347 19.1377C14.5737 19.2287 14.3602 19.2742 14.0942 19.2742H13.4222V14.0015H14.0609C14.3479 14.0015 14.5772 14.0575 14.7487 14.166C14.9219 14.2727 15.0497 14.4337 15.1389 14.6472C15.2264 14.8607 15.2842 15.1285 15.3122 15.4505C15.3384 15.7742 15.3542 16.1487 15.3542 16.5757C15.3542 17.0867 15.3384 17.5137 15.3069 17.855Z" fill="#FBF8ED"/>
<path d="M23.0997 14.1296V12.8906H18.9102V20.3876H20.4222V17.1326H22.9422V15.8936H20.4222V14.1296H23.0997Z" fill="#FBF8ED"/>
</symbol><symbol id="icon-play" viewBox="0 0 98 98">
<circle cx="49" cy="49" r="48" stroke="#F4D37D" stroke-width="2" fill="transparent"/>
<path d="M54 47L46.5 53.9282L46.5 40.0718L54 47Z" fill="white"/>
</symbol><symbol id="icon-telegram" viewBox="0 0 18 16">
<path d="M7.06288 10.1361L6.76513 14.3241C7.19113 14.3241 7.37563 14.1411 7.59688 13.9213L9.59413 12.0126L13.7326 15.0433C14.4916 15.4663 15.0264 15.2436 15.2311 14.3451L17.9476 1.61605L17.9484 1.6153C18.1891 0.493304 17.5426 0.0545541 16.8031 0.329804L0.835633 6.44305C-0.254117 6.86605 -0.237617 7.47355 0.650383 7.7488L4.73263 9.01855L14.2149 3.0853C14.6611 2.7898 15.0669 2.9533 14.7331 3.2488L7.06288 10.1361Z" fill="#293539"/>
</symbol><symbol id="icon-toparrow" viewBox="0 0 8 48">
<path d="M4.35355 0.646446C4.15829 0.451183 3.84171 0.451183 3.64644 0.646446L0.464464 3.82843C0.269202 4.02369 0.269202 4.34027 0.464464 4.53553C0.659726 4.7308 0.976309 4.7308 1.17157 4.53553L4 1.70711L6.82843 4.53553C7.02369 4.7308 7.34027 4.7308 7.53553 4.53553C7.73079 4.34027 7.73079 4.02369 7.53553 3.82843L4.35355 0.646446ZM4.5 48L4.5 1L3.5 1L3.5 48L4.5 48Z" fill="#FBF8ED"/>
</symbol><symbol id="icon-viber" viewBox="0 0 16 16">
<path d="M13.4749 6.79456C13.4934 4.67975 11.6437 2.74103 9.35165 2.47294C9.30606 2.46768 9.2564 2.45967 9.20383 2.45119C9.09036 2.43288 8.97301 2.41406 8.85462 2.41406C8.38485 2.41406 8.25928 2.7354 8.22622 2.92704C8.19408 3.11338 8.22474 3.26985 8.31721 3.39232C8.47278 3.59831 8.7465 3.63488 8.96636 3.66418C9.0308 3.67285 9.0916 3.68091 9.1425 3.69204C11.2018 4.14013 11.8952 4.84461 12.2341 6.8329C12.2424 6.88149 12.2461 6.94135 12.2501 7.00484C12.2649 7.24251 12.2957 7.737 12.8416 7.737H12.8416C12.8871 7.737 12.9359 7.73318 12.9868 7.72563C13.4951 7.6504 13.4792 7.1984 13.4716 6.98122C13.4694 6.92006 13.4673 6.8622 13.4726 6.82372C13.4741 6.81403 13.4748 6.8043 13.4749 6.79456Z" fill="#293539"/>
<path d="M8.7217 1.69664C8.78269 1.70093 8.84043 1.70503 8.8885 1.7122C12.2701 2.21861 13.8252 3.77879 14.2562 7.09751C14.2635 7.15392 14.2647 7.22273 14.2658 7.29558C14.2702 7.55487 14.279 8.09426 14.8739 8.10544L14.8923 8.10563C15.0789 8.10563 15.2273 8.05085 15.3334 7.94268C15.5186 7.75406 15.5057 7.47386 15.4953 7.24867C15.4927 7.19343 15.4903 7.14139 15.4909 7.09583C15.5339 3.70165 12.5168 0.62382 9.03441 0.509363C9.01996 0.508897 9.00618 0.509643 8.99226 0.511553C8.98542 0.512531 8.97275 0.513742 8.95103 0.513742C8.9163 0.513742 8.87358 0.510807 8.82828 0.507826C8.7735 0.504193 8.71141 0.5 8.64846 0.5C8.09388 0.5 7.98844 0.88385 7.97495 1.11267C7.94386 1.64149 8.46921 1.67871 8.7217 1.69664Z" fill="#293539"/>
<path d="M14.0925 11.3866C14.0206 11.3331 13.9463 11.2777 13.8767 11.2232C13.5075 10.9338 13.1147 10.6671 12.7348 10.4092C12.656 10.3557 12.5771 10.3022 12.4986 10.2485C12.012 9.91569 11.5745 9.75395 11.1612 9.75395C10.6045 9.75395 10.1192 10.0535 9.71858 10.6441C9.5411 10.906 9.32579 11.0333 9.06044 11.0333C8.90353 11.0333 8.72524 10.9897 8.53059 10.9036C6.95995 10.21 5.83841 9.14664 5.19705 7.74293C4.88702 7.06449 4.98752 6.62101 5.53316 6.26008C5.843 6.0553 6.41972 5.67406 6.37887 4.944C6.33261 4.11495 4.45414 1.62043 3.66267 1.33711C3.32757 1.21711 2.97549 1.21599 2.61432 1.33432C1.70445 1.63217 1.05152 2.15526 0.725942 2.84694C0.411316 3.51527 0.425524 4.30002 0.767034 5.11636C1.7543 7.47656 3.14235 9.53435 4.89276 11.2325C6.6061 12.8948 8.71194 14.2564 11.1517 15.2794C11.3716 15.3716 11.6023 15.4218 11.7708 15.4585C11.8282 15.4711 11.8777 15.4818 11.9138 15.4914C11.9337 15.4967 11.9542 15.4995 11.9747 15.4997L11.994 15.4998C11.994 15.4998 11.994 15.4998 11.9941 15.4998C13.1416 15.4998 14.5194 14.4787 14.9426 13.3146C15.3133 12.2952 14.6364 11.7914 14.0925 11.3866Z" fill="#293539"/>
<path d="M9.22736 4.39103C9.0309 4.39588 8.62203 4.40575 8.47856 4.81126C8.41145 5.00077 8.41949 5.1653 8.50248 5.3003C8.62428 5.49838 8.85763 5.55907 9.06988 5.59238C9.83964 5.71266 10.235 6.12716 10.314 6.89673C10.3508 7.25556 10.5989 7.50614 10.9175 7.50614H10.9176C10.9411 7.50614 10.9652 7.50479 10.9891 7.50194C11.3723 7.45755 11.5581 7.1834 11.5413 6.68719C11.5474 6.16932 11.2691 5.58139 10.7957 5.11308C10.3207 4.64333 9.74817 4.37878 9.22736 4.39103Z" fill="#293539"/>
</symbol><symbol id="icon-vk" viewBox="0 0 19 14">
<g clip-path="url(#clip0)">
<path d="M15.5891 7.86535C15.2854 7.40489 15.3723 7.20003 15.5891 6.78844C15.593 6.78374 18.1003 2.62454 18.3586 1.21402L18.3602 1.21308C18.4885 0.699056 18.3602 0.321289 17.7394 0.321289H15.6854C15.1625 0.321289 14.9214 0.645492 14.7922 1.00822C14.7922 1.00822 13.7464 4.01345 12.267 5.96148C11.7895 6.52437 11.5687 6.7048 11.3081 6.7048C11.1797 6.7048 10.9801 6.52437 10.9801 6.01035V1.21308C10.9801 0.596627 10.8337 0.321289 10.4008 0.321289H7.17107C6.84308 0.321289 6.64817 0.608843 6.64817 0.876663C6.64817 1.46117 7.3879 1.59555 7.46461 3.24006V6.80817C7.46461 7.59002 7.34641 7.73379 7.08418 7.73379C6.38594 7.73379 4.69121 4.71635 3.6869 1.26289C3.48416 0.592868 3.28612 0.322229 2.75931 0.322229H0.704504C0.1182 0.322229 0 0.646432 0 1.00916C0 1.65005 0.698242 4.83664 3.24698 9.04658C4.94562 11.9202 7.3378 13.4774 9.51394 13.4774C10.822 13.4774 10.9817 13.1315 10.9817 12.5367C10.9817 9.79084 10.8635 9.53148 11.5186 9.53148C11.8224 9.53148 12.3453 9.7119 13.5664 11.098C14.9621 12.7416 15.1915 13.4774 15.9727 13.4774H18.0267C18.6122 13.4774 18.9089 13.1315 18.7382 12.4493C18.3476 11.0144 15.7081 8.06269 15.5891 7.86535Z"/>
</g>

</symbol><symbol id="icon-vkontakte" viewBox="0 0 18 18">
<path d="M14.9363 10.6311C14.6453 10.2111 14.7285 10.0243 14.9363 9.64886C14.94 9.64457 17.3422 5.85086 17.5897 4.56429L17.5912 4.56343C17.7143 4.09457 17.5913 3.75 16.9965 3.75H15.0285C14.5275 3.75 14.2965 4.04571 14.1727 4.37657C14.1727 4.37657 13.1707 7.11771 11.7533 8.89457C11.2957 9.408 11.0843 9.57257 10.8345 9.57257C10.7115 9.57257 10.5203 9.408 10.5203 8.93914V4.56343C10.5203 4.00114 10.38 3.75 9.96525 3.75H6.87075C6.5565 3.75 6.36975 4.01229 6.36975 4.25657C6.36975 4.78971 7.0785 4.91229 7.152 6.41229V9.66686C7.152 10.38 7.03875 10.5111 6.7875 10.5111C6.1185 10.5111 4.49475 7.75886 3.5325 4.60886C3.33825 3.99771 3.1485 3.75086 2.64375 3.75086H0.675C0.11325 3.75086 0 4.04657 0 4.37743C0 4.962 0.669 7.86857 3.111 11.7086C4.7385 14.3297 7.0305 15.75 9.1155 15.75C10.3688 15.75 10.5218 15.4346 10.5218 14.892C10.5218 12.3874 10.4085 12.1509 11.0363 12.1509C11.3273 12.1509 11.8282 12.3154 12.9982 13.5797C14.3355 15.0789 14.5553 15.75 15.3038 15.75H17.2717C17.8328 15.75 18.117 15.4346 17.9535 14.8123C17.5793 13.5034 15.0503 10.8111 14.9363 10.6311Z" fill="#293539"/>
</symbol><symbol id="icon-watsapp" viewBox="0 0 16 16">
<path d="M13.325 2.65562C11.9 1.27812 10.025 0.5 8.02812 0.5C2.29688 0.5 -1.30187 6.70937 1.56 11.6487L0.5 15.5L4.45937 14.4675C6.18437 15.3994 7.5975 15.3169 8.03187 15.3719C14.6775 15.3719 17.9856 7.33187 13.3156 2.68L13.325 2.65562Z" fill="#293539"/>
<path d="M8.04217 14.0927L8.03842 14.0921H8.02842C6.03967 14.0921 4.76904 13.1502 4.64404 13.0958L2.30029 13.7052L2.92842 11.4271L2.77904 11.1927C2.16029 10.2077 1.83154 9.0733 1.83154 7.90518C1.83154 2.40955 8.54717 -0.338574 12.4334 3.5458C16.3103 7.38955 13.5884 14.0927 8.04217 14.0927Z" fill="#293539"/>
<path d="M11.442 9.44137L11.4363 9.48825C11.2482 9.3945 10.332 8.94637 10.1613 8.8845C9.77821 8.74262 9.88634 8.862 9.15071 9.7045C9.04134 9.82637 8.93259 9.83575 8.74696 9.75137C8.55946 9.65762 7.95759 9.46075 7.24509 8.82325C6.69009 8.32637 6.31759 7.717 6.20759 7.5295C6.02446 7.21325 6.40759 7.16825 6.75634 6.50825C6.81884 6.377 6.78696 6.27387 6.74071 6.18075C6.69384 6.087 6.32071 5.16825 6.16446 4.802C6.01446 4.437 5.86009 4.48325 5.74446 4.48325C5.38446 4.452 5.12134 4.457 4.88946 4.69825C3.88071 5.807 4.13509 6.95075 4.99821 8.167C6.69446 10.387 7.59821 10.7957 9.25071 11.3632C9.69696 11.5051 10.1038 11.4851 10.4257 11.4389C10.7845 11.382 11.5301 10.9882 11.6857 10.5476C11.8451 10.107 11.8451 9.74137 11.7982 9.657C11.752 9.57262 11.6295 9.52575 11.442 9.44137Z" fill="#161F22"/>
</symbol><symbol id="icon-youtube" viewBox="0 0 20 15">
<path d="M18.9831 2.73047C18.7666 1.87815 18.132 1.20627 17.3273 0.976762C15.8573 0.550781 9.97684 0.550781 9.97684 0.550781C9.97684 0.550781 4.09664 0.550781 2.62657 0.960612C1.83735 1.18987 1.18733 1.87827 0.970853 2.73047C0.583984 4.28722 0.583984 7.51572 0.583984 7.51572C0.583984 7.51572 0.583984 10.7605 0.970853 12.301C1.18756 13.1532 1.82187 13.825 2.62668 14.0545C4.11212 14.4807 9.97707 14.4807 9.97707 14.4807C9.97707 14.4807 15.8573 14.4807 17.3273 14.0708C18.1322 13.8414 18.7666 13.1696 18.9833 12.3174C19.37 10.7605 19.37 7.53211 19.37 7.53211C19.37 7.53211 19.3855 4.28722 18.9831 2.73047ZM8.10464 10.4983V4.53312L12.9945 7.51572L8.10464 10.4983Z"/>
</symbol></svg>